<svg width="33" height="32" viewBox="0 0 33 32" xmlns="http://www.w3.org/2000/svg">
<path d="M26.4579 28.72L26.4565 28.7213C24.9115 30.2664 23.253 31.0049 21.4901 31.0049C20.9834 31.0049 20.4711 30.9405 19.9317 30.8175C17.929 30.3566 15.7389 28.9868 13.4231 26.6808C13.423 26.6808 13.4229 26.6807 13.4229 26.6806L5.82397 19.0817C3.28105 16.5338 1.89491 14.1469 1.57338 11.9851C1.25649 9.85442 1.96235 7.86496 3.78316 6.0489L3.78317 6.04891L3.78498 6.04708L5.08363 4.73844C5.08384 4.73823 5.08406 4.73801 5.08428 4.73779C5.72887 4.09375 6.68996 3.94961 7.49571 4.37655C8.36827 4.83954 9.33366 5.91631 10.1216 6.96517C10.8952 7.99506 11.4384 8.91618 11.4743 8.97999L11.4743 8.98001L11.4768 8.98435C11.8074 9.55864 11.8832 10.0989 11.7693 10.5176C11.6727 10.8407 11.4808 11.0905 11.2008 11.2514L11.1623 11.2736L11.1282 11.3023C10.8105 11.5695 10.4642 11.8678 10.1809 12.1206C10.0395 12.2468 9.91148 12.3637 9.80969 12.4609C9.71902 12.5474 9.61914 12.6461 9.56007 12.7249L9.55231 12.7353L9.5451 12.746C9.09858 13.4103 8.85435 14.0765 8.92252 14.7631C8.99065 15.4492 9.36112 16.0582 9.93727 16.6292C9.93758 16.6295 9.93789 16.6298 9.9382 16.6301L15.8765 22.5685C16.4464 23.1383 17.0527 23.5092 17.7381 23.5774C18.4242 23.6457 19.0907 23.4008 19.7598 22.9494L19.7598 22.9494L19.7633 22.9469C19.8529 22.8853 19.9582 22.7791 20.0416 22.6922C20.1388 22.591 20.2554 22.4632 20.3807 22.3227C20.6319 22.0411 20.9298 21.6952 21.1997 21.3803L21.2271 21.3483L21.2488 21.3121C21.4239 21.0202 21.6767 20.8259 21.9716 20.7401C22.4978 20.6279 23.0473 20.7271 23.5013 21.0165L23.5129 21.0239L23.5249 21.0307C23.5888 21.0666 24.5099 21.6098 25.5398 22.3834C26.5886 23.1713 27.6654 24.1367 28.1284 25.0093C28.5535 25.8116 28.4041 26.7743 27.7659 27.4219C27.7654 27.4225 27.7648 27.423 27.7643 27.4236L26.4579 28.72ZM8.95577 13.9436C9.04932 13.5609 9.23117 13.1557 9.52257 12.7275C9.54802 12.6907 9.62316 12.6051 9.75914 12.471C9.88731 12.3446 10.0462 12.1976 10.2154 12.0456C10.5007 11.7894 10.8041 11.529 11.0229 11.3412C11.049 11.3188 11.0739 11.2974 11.0974 11.2772L11.1388 11.2542C11.2832 11.1771 11.4104 11.0712 11.5125 10.9429C11.6158 10.813 11.691 10.6631 11.7334 10.5028C11.8582 10.0337 11.7237 9.4795 11.4483 9.00381L11.4385 8.98613C11.4325 8.97556 11.425 8.96248 11.4163 8.94771C11.3988 8.91778 11.3741 8.8763 11.3429 8.82489C11.2805 8.72191 11.1908 8.57687 11.0784 8.40153C10.8539 8.0512 10.5373 7.57704 10.1661 7.07417C9.79559 6.57233 9.36597 6.03545 8.91518 5.56279C8.46965 5.09564 7.9792 4.66524 7.48429 4.40316C7.10318 4.20086 6.66707 4.12655 6.24045 4.19126C5.8141 4.25593 5.41984 4.45598 5.1159 4.76194C5.11566 4.76218 5.11541 4.76243 5.11517 4.76267L3.80652 6.07131L4.16007 6.42487L3.80652 6.07131C2.01192 7.86591 1.26104 9.90487 1.6344 12.141C2.00163 14.3404 3.44398 16.6508 5.84615 19.0581L5.84652 19.0584L13.4465 26.6584C15.8541 29.066 18.1648 30.506 20.3646 30.8707C22.6005 31.2413 24.6389 30.4879 26.4331 28.699L26.435 28.6971L27.733 27.3892C28.0403 27.0861 28.2414 26.6917 28.3062 26.2649C28.3709 25.8378 28.2957 25.4012 28.0917 25.0205C27.6666 24.212 26.7306 23.356 25.8449 22.6614C24.9387 21.9508 24.0049 21.3485 23.5034 21.0538L23.4993 21.0514C23.029 20.781 22.4609 20.6465 21.9912 20.7718L21.9912 20.7717L21.9838 20.7738C21.8266 20.8183 21.6801 20.8945 21.5533 20.9977C21.4323 21.0962 21.3317 21.2173 21.2571 21.3542L21.2347 21.39C21.0481 21.6118 20.7502 21.9632 20.4593 22.287C20.3076 22.4559 20.1612 22.6136 20.0355 22.7398C19.9004 22.8756 19.8174 22.9461 19.7857 22.9669L19.7857 22.9668L19.7781 22.972C19.4013 23.2293 19.0475 23.4036 18.7064 23.506L17.4875 23.8716C16.9607 23.5486 16.4616 23.1773 15.997 22.7607L15.9841 22.7399L15.9436 22.675L15.8855 22.6252L15.83 22.5777L10.3636 17.1114L10.3386 17.0863L10.3103 17.0651L10.2809 17.043C10.1732 16.9524 9.40255 16.2893 8.65131 15.1892L8.95577 13.9436ZM17.7474 24.0258L18.6402 24.4387C19.4657 24.8205 20.4768 25.1675 21.6306 25.2787C21.6323 25.2799 21.6338 25.2814 21.6351 25.2831C21.638 25.2871 21.6394 25.2921 21.6389 25.2971C21.6383 25.302 21.6359 25.3066 21.6322 25.3099C21.6306 25.3114 21.6288 25.3125 21.6268 25.3134C20.2532 25.1473 18.935 24.7067 17.7474 24.0258ZM8.02164 14.046L8.37241 14.7573C7.8217 13.8538 7.32957 12.7149 7.1822 11.3974C7.18301 11.3958 7.18405 11.3943 7.18528 11.3929C7.18862 11.3892 7.1932 11.3869 7.19814 11.3865C7.20309 11.386 7.20803 11.3874 7.212 11.3903C7.21402 11.3918 7.21571 11.3936 7.21702 11.3957C7.3287 12.3933 7.64757 13.2875 8.02164 14.046Z" stroke="#3970F2"/>
<path d="M28.5701 24.7749C29.1001 25.7749 28.9101 26.9749 28.1201 27.7749L26.8101 29.0749C25.1901 30.6949 23.4101 31.5049 21.4901 31.5049C20.9401 31.5049 20.3901 31.4349 19.8201 31.3049C17.6901 30.8149 15.4201 29.3749 13.0701 27.0349L5.47007 19.4349C0.310074 14.2649 -0.399927 9.51489 3.43007 5.69489L4.73007 4.38489C5.53007 3.58489 6.73007 3.40488 7.73007 3.93488C9.69007 4.97488 11.8201 8.57486 11.9101 8.73486C12.2901 9.39486 12.4101 10.0749 12.2501 10.6549C12.1201 11.0949 11.8501 11.4549 11.4501 11.6849C10.8201 12.2149 10.0801 12.8649 9.96007 13.0249C9.14007 14.2449 9.23007 15.2249 10.2901 16.2749L16.2301 22.2149C17.2801 23.2649 18.2501 23.3649 19.4801 22.5349C19.6401 22.4249 20.2801 21.6849 20.8201 21.0549C21.0601 20.6549 21.4201 20.3749 21.8501 20.2549C22.5098 20.1094 23.2004 20.2317 23.7701 20.5949C23.9301 20.6849 27.5301 22.8149 28.5701 24.7749V24.7749ZM27.6501 25.2549C26.9101 23.8449 24.2201 22.0549 23.2501 21.4849C22.8501 21.2549 22.4201 21.1749 22.1201 21.2549C22.0283 21.2809 21.9429 21.3253 21.8689 21.3855C21.795 21.4457 21.7341 21.5203 21.6901 21.6049L21.6401 21.6849C21.2701 22.1249 20.3801 23.1749 20.0601 23.3849C19.6501 23.6649 19.2501 23.8649 18.8501 23.9849C19.6501 24.3549 20.6201 24.6849 21.7201 24.7849C21.8475 24.8102 21.9608 24.8821 22.0378 24.9868C22.1148 25.0914 22.1498 25.221 22.136 25.3502C22.1222 25.4793 22.0606 25.5986 21.9633 25.6846C21.8659 25.7706 21.7399 25.8171 21.6101 25.8149C19.3741 25.5537 17.276 24.5991 15.6101 23.0849L15.5601 23.0049L15.4901 22.9449L10.0101 17.4649L9.97007 17.4349C9.85007 17.3349 7.06007 15.0049 6.68007 11.4049C6.68044 11.2759 6.72871 11.1517 6.81552 11.0563C6.90232 10.961 7.02147 10.9013 7.14982 10.8888C7.27818 10.8763 7.40658 10.912 7.51011 10.9889C7.61364 11.0658 7.68491 11.1784 7.71007 11.3049C7.81007 12.2449 8.11007 13.0949 8.47007 13.8249C8.58007 13.3749 8.79007 12.9149 9.11007 12.4449C9.33007 12.1249 10.3801 11.2349 10.8101 10.8649L10.9001 10.8149C10.9857 10.7697 11.0609 10.7073 11.1212 10.6316C11.1814 10.5559 11.2253 10.4684 11.2501 10.3749C11.3301 10.0749 11.2501 9.65487 11.0101 9.24487C11.0001 9.21487 8.95007 5.74491 7.25007 4.84491C6.96371 4.69284 6.636 4.63698 6.31543 4.68561C5.99487 4.73423 5.69846 4.88472 5.47007 5.11487L4.16007 6.42487C0.760072 9.82487 1.46007 13.9549 6.20007 18.7049L13.8001 26.3049C18.5501 31.0549 22.6801 31.7349 26.0801 28.3449L27.3801 27.0349C27.6116 26.8074 27.7631 26.5108 27.8118 26.1899C27.8605 25.8689 27.8037 25.5408 27.6501 25.2549V25.2549Z" stroke="#3970F2" stroke-width="0.5" stroke-miterlimit="50"/>
<path d="M15.0709 1.5002L15.1053 1.50501H15.1401C24.1541 1.50501 31.5001 8.84133 31.5001 17.865C31.5001 17.8703 31.498 17.8755 31.4942 17.8792C31.4905 17.8829 31.4855 17.885 31.4801 17.885C31.4747 17.885 31.4697 17.8829 31.466 17.8792C31.4622 17.8755 31.4601 17.8703 31.4601 17.865C31.4601 8.85905 24.1364 1.53504 15.1401 1.53504H15.1053L15.0709 1.53984C15.0682 1.54022 15.0654 1.54003 15.0625 1.53918C15.0598 1.53838 15.0572 1.53699 15.055 1.53508C15.0529 1.53319 15.0511 1.53088 15.05 1.52829C15.0488 1.52566 15.0482 1.52285 15.0482 1.52002C15.0482 1.51713 15.0488 1.51427 15.05 1.5117C15.0511 1.50911 15.0529 1.50679 15.055 1.5049C15.0572 1.50299 15.0598 1.5016 15.0625 1.50081C15.0651 1.50003 15.068 1.49979 15.0709 1.5002Z" stroke="#3970F2"/>
<path d="M15.1401 1.00501C15.0664 0.994719 14.9914 1.00032 14.9202 1.02149C14.8489 1.04265 14.7829 1.07888 14.7268 1.12769C14.6707 1.1765 14.6258 1.23677 14.5949 1.30445C14.5641 1.37212 14.5482 1.44566 14.5482 1.52002C14.5482 1.59439 14.5641 1.66786 14.5949 1.73554C14.6258 1.80321 14.6707 1.86348 14.7268 1.91229C14.7829 1.96111 14.8489 1.99733 14.9202 2.0185C14.9914 2.03966 15.0664 2.04532 15.1401 2.03504C23.8601 2.03504 30.9601 9.13499 30.9601 17.865C30.9601 18.0029 31.0149 18.1352 31.1124 18.2327C31.2099 18.3302 31.3422 18.385 31.4801 18.385C31.618 18.385 31.7503 18.3302 31.8478 18.2327C31.9453 18.1352 32.0001 18.0029 32.0001 17.865C32.0001 8.56499 24.4301 1.00501 15.1401 1.00501Z" stroke="#3970F2" stroke-width="0.5" stroke-miterlimit="50"/>
<path d="M15.1401 5.16486H15.1053L15.0709 5.16967C15.068 5.17008 15.0651 5.16984 15.0625 5.16906C15.0598 5.16826 15.0572 5.16687 15.055 5.16496C15.0529 5.16307 15.0511 5.16076 15.05 5.15817C15.0488 5.15554 15.0482 5.15273 15.0482 5.1499C15.0482 5.14701 15.0488 5.14415 15.05 5.14158C15.0511 5.13899 15.0529 5.13667 15.055 5.13479C15.0572 5.13287 15.0598 5.13149 15.0625 5.13069C15.0651 5.12991 15.068 5.12967 15.0709 5.13008L15.1053 5.13489H15.1401C22.1542 5.13489 27.8701 10.8413 27.8701 17.8649V17.8996L27.8749 17.934C27.8753 17.9369 27.8751 17.9398 27.8743 17.9425C27.8735 17.9452 27.8721 17.9478 27.8702 17.95C27.8694 17.9509 27.8685 17.9517 27.8675 17.9525C27.8663 17.9535 27.8649 17.9543 27.8634 17.955C27.8606 17.9563 27.8578 17.9569 27.8551 17.9569C27.8524 17.9569 27.8496 17.9563 27.8468 17.955C27.8442 17.9538 27.8419 17.9521 27.84 17.95C27.8381 17.9478 27.8367 17.9452 27.8359 17.9425C27.8351 17.9398 27.8349 17.9369 27.8353 17.934L27.8401 17.8996V17.8649C27.8401 16.1971 27.5116 14.5457 26.8734 13.0048C26.2351 11.464 25.2997 10.0639 24.1204 8.88461C22.941 7.7053 21.541 6.76986 20.0002 6.13163C18.4593 5.4934 16.8079 5.16486 15.1401 5.16486Z" stroke="#3970F2"/>
<path d="M15.1401 5.66486C16.7422 5.66486 18.3287 5.98046 19.8088 6.59357C21.289 7.20668 22.6339 8.10529 23.7668 9.23816C24.8997 10.371 25.7983 11.716 26.4114 13.1962C27.0245 14.6763 27.3401 16.2627 27.3401 17.8649C27.3298 17.9385 27.3354 18.0136 27.3566 18.0848C27.3778 18.1561 27.414 18.222 27.4628 18.2781C27.5116 18.3342 27.5719 18.3792 27.6396 18.41C27.7072 18.4409 27.7807 18.4569 27.8551 18.4569C27.9295 18.4569 28.003 18.4409 28.0706 18.41C28.1383 18.3792 28.1986 18.3342 28.2474 18.2781C28.2962 18.222 28.3324 18.1561 28.3536 18.0848C28.3748 18.0136 28.3804 17.9385 28.3701 17.8649C28.3701 10.5649 22.4301 4.63489 15.1401 4.63489C15.0664 4.6246 14.9914 4.6302 14.9202 4.65137C14.8489 4.67253 14.7829 4.70876 14.7268 4.75757C14.6707 4.80638 14.6258 4.86665 14.5949 4.93433C14.5641 5.002 14.5482 5.07554 14.5482 5.1499C14.5482 5.22427 14.5641 5.29774 14.5949 5.36542C14.6258 5.4331 14.6707 5.49337 14.7268 5.54218C14.7829 5.59099 14.8489 5.62721 14.9202 5.64838C14.9914 5.66954 15.0664 5.67515 15.1401 5.66486V5.66486Z" stroke="#3970F2" stroke-width="0.5" stroke-miterlimit="50"/>
<path d="M15.1407 8.80499H15.1401H15.1301H15.0953L15.0609 8.8098C15.058 8.81022 15.0551 8.80997 15.0525 8.80919C15.0498 8.8084 15.0472 8.80701 15.045 8.8051C15.0429 8.80321 15.0411 8.8009 15.0399 8.79831C15.0388 8.79573 15.0381 8.79287 15.0381 8.78998C15.0381 8.78715 15.0387 8.78435 15.0399 8.78172C15.0411 8.77913 15.0429 8.77681 15.045 8.77492C15.0472 8.77301 15.0498 8.77162 15.0525 8.77083C15.0551 8.77005 15.058 8.76981 15.0609 8.77022L15.0953 8.77503H15.1301C20.1539 8.77503 24.2301 12.8511 24.2301 17.875V17.9098L24.2349 17.9442C24.2353 17.947 24.2351 17.9499 24.2343 17.9527C24.2334 17.9554 24.2321 17.9579 24.2302 17.9601C24.2283 17.9622 24.226 17.9639 24.2234 17.9651C24.2209 17.9663 24.218 17.9669 24.2151 17.9669C24.2121 17.9669 24.2093 17.9663 24.2068 17.9651C24.2041 17.9639 24.2018 17.9622 24.2 17.9601C24.1981 17.9579 24.1967 17.9554 24.1959 17.9527C24.1956 17.9515 24.1953 17.9504 24.1952 17.9492C24.195 17.9476 24.195 17.9459 24.1953 17.9442L24.2001 17.9098V17.875C24.2001 15.4713 23.246 13.1659 21.5473 11.4653C19.8486 9.76461 17.5443 8.8078 15.1407 8.80499Z" stroke="#3970F2"/>
<path d="M15.1401 9.30499C17.4113 9.30764 19.5885 10.2117 21.1935 11.8186C22.7986 13.4255 23.7001 15.6038 23.7001 17.875C23.6898 17.9487 23.6954 18.0237 23.7166 18.095C23.7378 18.1663 23.774 18.2322 23.8228 18.2883C23.8716 18.3444 23.9319 18.3893 23.9995 18.4202C24.0672 18.451 24.1407 18.4669 24.2151 18.4669C24.2894 18.4669 24.363 18.451 24.4306 18.4202C24.4983 18.3893 24.5586 18.3444 24.6074 18.2883C24.6562 18.2322 24.6924 18.1663 24.7136 18.095C24.7347 18.0237 24.7404 17.9487 24.7301 17.875C24.7301 12.575 20.4301 8.27503 15.1301 8.27503C15.0564 8.26474 14.9814 8.27034 14.9101 8.29151C14.8389 8.31267 14.7729 8.3489 14.7168 8.39771C14.6607 8.44652 14.6157 8.50679 14.5849 8.57446C14.5541 8.64214 14.5381 8.71561 14.5381 8.78998C14.5381 8.86435 14.5541 8.93788 14.5849 9.00556C14.6157 9.07323 14.6607 9.1335 14.7168 9.18231C14.7729 9.23113 14.8389 9.26735 14.9101 9.28852C14.9814 9.30968 15.0564 9.31528 15.1301 9.30499H15.1401Z" stroke="#3970F2" stroke-width="0.5" stroke-miterlimit="50"/>
</svg>
