<svg width="32" height="22" viewBox="0 0 32 22" xmlns="http://www.w3.org/2000/svg">
<path d="M23.64 17.55L18.37 20.82C17.56 21.53 15.44 21.72 14.41 21.72C13.86 21.72 13.43 21.68 13.13 21.59L4.55999 20.28C4.46945 20.2641 4.38299 20.2302 4.30572 20.1804C4.22844 20.1306 4.1619 20.0659 4.10999 19.99C4.05894 19.9109 4.02462 19.8222 4.00914 19.7293C3.99367 19.6364 3.99736 19.5414 4.01999 19.45L5.48999 13.87L5.53999 13.74C5.92766 12.955 6.51736 12.2875 7.24848 11.8059C7.97959 11.3244 8.82575 11.0462 9.69999 11L13.08 7.63C13.92 6.79 15.38 6.79 16.21 7.63C16.96 8.37 17.07 9.54999 16.49 10.43L14.4 13.3C14.12 13.67 13.98 14.12 13.98 14.58C13.9798 14.8659 14.0413 15.1486 14.1601 15.4086C14.279 15.6687 14.4526 15.9001 14.6689 16.087C14.8853 16.274 15.1394 16.4121 15.414 16.492C15.6885 16.5719 15.9771 16.5917 16.26 16.55L19.25 16.32H23.29C23.59 16.32 23.85 16.51 23.93 16.8C23.9728 16.9394 23.9675 17.0892 23.9149 17.2252C23.8623 17.3612 23.7655 17.4756 23.64 17.55ZM20.96 17.65H19.3L16.41 17.88C15.9405 17.9411 15.4634 17.9014 15.0105 17.7636C14.5576 17.6258 14.1392 17.3929 13.7834 17.0807C13.4276 16.7684 13.1424 16.3838 12.947 15.9526C12.7515 15.5214 12.6503 15.0534 12.65 14.58C12.65 13.83 12.88 13.12 13.32 12.52L15.4 9.67001C15.5076 9.49951 15.5534 9.29721 15.5298 9.09698C15.5061 8.89675 15.4144 8.71072 15.27 8.57C15.101 8.41036 14.8774 8.32141 14.645 8.32141C14.4126 8.32141 14.1889 8.41036 14.02 8.57L10.46 12.13C10.3341 12.2535 10.1663 12.3249 9.98999 12.33C8.61999 12.33 7.38999 13.07 6.75999 14.28L5.49999 19.08L13.42 20.3C13.56 20.33 13.82 20.39 14.41 20.39C15.8 20.39 17.24 20.08 17.5 19.82L17.62 19.72L20.96 17.65Z"/>
<path d="M6.65 13.05C6.35 16.51 5.33 19.72 5.29 19.85C5.24086 20.0097 5.13387 20.1452 4.99 20.2301C4.89 20.2801 2.48 21.65 0.669998 21.65C0.492303 21.65 0.321889 21.5795 0.196239 21.4538C0.0705901 21.3282 0 21.1577 0 20.9801V11.66C0.00111024 11.5685 0.0209568 11.4782 0.0583153 11.3947C0.0956738 11.3111 0.149753 11.2361 0.217216 11.1743C0.28468 11.1124 0.364096 11.0651 0.450569 11.0351C0.537042 11.0051 0.628739 10.9932 0.720001 11C1.47 11.06 5.28 11.4101 6.45 12.5101C6.59 12.6501 6.67 12.85 6.65 13.05ZM5.29 13.31C4.54 12.89 2.77 12.56 1.33 12.4V20.24C2.33 20.05 3.49 19.5201 4.1 19.2001C4.33 18.4201 5.02 15.94 5.29 13.31Z"/>
<path d="M21.42 6.67001L21.28 6.64999C19.35 6.40999 19.33 6 19.33 6C19.33 5.83 20.04 5.32999 21.33 5.32999C22.57 5.32999 23.3 5.79999 23.33 5.98999C23.37 6.35999 23.71 6.61001 24.07 6.57001C24.1569 6.56012 24.241 6.53304 24.3174 6.49036C24.3938 6.44767 24.4609 6.39024 24.5149 6.32138C24.5688 6.25252 24.6086 6.17362 24.6318 6.08926C24.655 6.00491 24.6612 5.91676 24.65 5.82999C24.51 4.76999 23.12 4 21.33 4C19.43 4 18 4.86 18 6C18 7.59 20.27 7.87001 21.24 7.98001L21.38 8C23.3 8.24 23.32 8.65 23.32 8.66C23.32 8.79 22.68 9.32001 21.33 9.32001C20.08 9.32001 19.35 8.85 19.33 8.66C19.3051 8.48471 19.2128 8.32605 19.0728 8.21774C18.9327 8.10943 18.7559 8.06 18.58 8.07999C18.4054 8.10483 18.2476 8.19752 18.1409 8.33792C18.0342 8.47832 17.9872 8.65512 18.01 8.82999C18.14 9.87999 19.54 10.65 21.32 10.65C23.22 10.65 24.65 9.8 24.65 8.66C24.65 7.07 22.39 6.79001 21.42 6.67001Z"/>
<path d="M21.67 3C21.3 3 21 3.30001 21 3.67001V11.65C21 12.02 21.3 12.32 21.67 12.32C22.03 12.32 22.33 12.02 22.33 11.65V3.67001C22.33 3.30001 22.03 3 21.67 3Z"/>
<path d="M30.96 0H9.67C9.3 0 9 0.300013 9 0.670013V7.32001C9 7.69001 9.3 7.98001 9.67 7.98001C10.03 7.98001 10.33 7.69001 10.33 7.32001V1.32999H30.29V13.31H16.32C15.95 13.31 15.65 13.61 15.65 13.97C15.65 14.34 15.95 14.64 16.32 14.64H30.96C31.32 14.64 31.62 14.34 31.62 13.97V0.670013C31.62 0.300013 31.32 0 30.96 0Z"/>
</svg>
