<svg width="34" height="32" viewBox="0 0 34 32" fill="none" xmlns="http://www.w3.org/2000/svg">
<path d="M31.7796 9.58268L29.7095 7.85586C29.5532 7.74544 29.3597 7.70099 29.1708 7.73213C28.982 7.76328 28.813 7.86753 28.7004 8.02231C28.5889 8.17736 28.5428 8.37 28.572 8.55875C28.6012 8.74749 28.7033 8.91721 28.8565 9.03133L30.9266 10.7477C31.4883 11.1534 31.8212 11.8192 31.8212 12.537V28.3799C31.8212 29.5762 30.9058 30.554 29.7719 30.554H3.48487C2.3614 30.554 1.44599 29.5762 1.44599 28.3799V12.537C1.44599 11.8192 1.77887 11.1534 2.3406 10.7477L5.3053 8.59443C5.45844 8.4803 5.56061 8.31059 5.5898 8.12185C5.61899 7.9331 5.57285 7.74044 5.46134 7.58539C5.34877 7.43061 5.17979 7.32638 4.99095 7.29523C4.80212 7.26409 4.60861 7.30854 4.4523 7.41896L1.4876 9.58268C1.02401 9.92269 0.647523 10.3676 0.388968 10.8811C0.130413 11.3946 -0.00286344 11.9621 4.66513e-05 12.537V28.3799C4.66513e-05 30.3772 1.56041 32 3.48487 32H29.7719C30.7146 31.9808 31.6114 31.5893 32.2663 30.911C32.9212 30.2327 33.2811 29.3227 33.2671 28.3799V12.537C33.2671 11.3615 32.7054 10.2588 31.7796 9.58268Z" fill="#3970F2"/>
<path d="M23.4472 2.87312L21.4603 1.42718C20.1904 0.499777 18.6586 0 17.0861 0C15.5136 0 13.9818 0.499777 12.7119 1.42718L10.7042 2.89393C10.5494 3.0065 10.4452 3.17547 10.414 3.36431C10.3829 3.55314 10.4273 3.74665 10.5377 3.90297C10.6055 3.99674 10.6946 4.07301 10.7977 4.12548C10.9009 4.17794 11.015 4.20507 11.1307 4.20463C11.2763 4.20463 11.4219 4.15262 11.5468 4.059L13.5649 2.60266C14.5875 1.85223 15.8228 1.44759 17.0913 1.44759C18.3597 1.44759 19.5951 1.85223 20.6177 2.60266L22.6046 4.0486C22.7609 4.15903 22.9544 4.20348 23.1432 4.17233C23.3321 4.14118 23.5011 4.03694 23.6136 3.88216C23.7241 3.72585 23.7685 3.53235 23.7374 3.34351C23.7062 3.15468 23.602 2.98569 23.4472 2.87312Z" fill="#3970F2"/>
<path d="M30.4793 12.8075C30.4278 12.7276 30.3608 12.6589 30.2822 12.6055C30.2037 12.5521 30.1151 12.5151 30.0219 12.4966C29.9287 12.4782 29.8328 12.4787 29.7398 12.4981C29.6468 12.5176 29.5586 12.5556 29.4806 12.6098L20.1184 18.8409C19.1554 19.4867 18.022 19.8315 16.8625 19.8315C15.7029 19.8315 14.5696 19.4867 13.6065 18.8409L4.24428 12.6098C4.16628 12.5556 4.07816 12.5176 3.98516 12.4981C3.89216 12.4787 3.79619 12.4782 3.70299 12.4966C3.60979 12.5151 3.52126 12.5521 3.44268 12.6055C3.3641 12.6589 3.29709 12.7276 3.24564 12.8075C3.19138 12.8855 3.1534 12.9736 3.13394 13.0666C3.11449 13.1596 3.11397 13.2556 3.13242 13.3488C3.15086 13.442 3.1879 13.5305 3.24131 13.6091C3.29472 13.6877 3.36341 13.7547 3.44329 13.8061L12.8055 20.0476C14.0054 20.8526 15.4176 21.2825 16.8625 21.2825C18.3073 21.2825 19.7196 20.8526 20.9194 20.0476L30.2816 13.8061C30.4385 13.6985 30.547 13.5337 30.584 13.3471C30.6209 13.1605 30.5833 12.9668 30.4793 12.8075Z" fill="#3970F2"/>
<path d="M29.0645 3.1228H5.92948C5.73636 3.1228 5.55114 3.19953 5.41458 3.33609C5.27802 3.47265 5.20131 3.65785 5.20131 3.85097V14.6903C5.18902 14.7926 5.19856 14.8962 5.22928 14.9945C5.26 15.0928 5.31121 15.1834 5.37953 15.2604C5.44785 15.3374 5.53173 15.3991 5.62563 15.4413C5.71953 15.4836 5.82132 15.5054 5.92428 15.5054C6.02724 15.5054 6.12902 15.4836 6.22292 15.4413C6.31682 15.3991 6.4007 15.3374 6.46902 15.2604C6.53734 15.1834 6.58855 15.0928 6.61928 14.9945C6.65 14.8962 6.65953 14.7926 6.64725 14.6903V4.56874H28.3468V13.6501C28.3345 13.7523 28.344 13.856 28.3748 13.9542C28.4055 14.0525 28.4567 14.1432 28.525 14.2202C28.5933 14.2972 28.6772 14.3589 28.7711 14.4011C28.865 14.4433 28.9668 14.4651 29.0697 14.4651C29.1727 14.4651 29.2745 14.4433 29.3684 14.4011C29.4623 14.3589 29.5462 14.2972 29.6145 14.2202C29.6828 14.1432 29.734 14.0525 29.7647 13.9542C29.7955 13.856 29.805 13.7523 29.7927 13.6501V3.85097C29.7927 3.65785 29.716 3.47265 29.5794 3.33609C29.4429 3.19953 29.2577 3.1228 29.0645 3.1228Z" fill="#3970F2"/>
<path d="M17.2369 10.186L17.0913 10.1652C14.99 9.90512 14.9692 9.4578 14.9692 9.4578C14.9692 9.27056 15.739 8.72963 17.1433 8.72963C18.4956 8.72963 19.2862 9.23936 19.3174 9.4474C19.359 9.8531 19.7231 10.1236 20.1184 10.082C20.2134 10.0704 20.3051 10.0402 20.3884 9.99313C20.4717 9.94608 20.5449 9.88307 20.6038 9.80772C20.6627 9.73237 20.7062 9.64616 20.7318 9.55399C20.7574 9.46182 20.7646 9.36551 20.753 9.27056C20.6073 8.11589 19.0886 7.28369 17.1433 7.28369C15.0732 7.28369 13.5233 8.21991 13.5233 9.4578C13.5233 11.1846 15.9886 11.4863 17.0393 11.6111L17.1953 11.6319C19.2862 11.892 19.307 12.3393 19.307 12.3497C19.307 12.4849 18.6101 13.0675 17.1329 13.0675C15.7806 13.0675 14.99 12.5577 14.9692 12.3497C14.9432 12.1591 14.8439 11.9861 14.6924 11.8676C14.5408 11.7491 14.3491 11.6944 14.1578 11.7151C13.9679 11.741 13.7959 11.8408 13.6791 11.9927C13.5623 12.1445 13.51 12.3364 13.5337 12.5265C13.6793 13.6812 15.1876 14.5134 17.1329 14.5134C19.203 14.5134 20.753 13.5876 20.753 12.3497C20.753 10.6125 18.298 10.3108 17.2369 10.186Z" fill="#3970F2"/>
<path d="M17.3722 6.24353C16.9665 6.24353 16.644 6.5452 16.644 6.90929V14.94C16.644 15.3041 16.9665 15.6057 17.3722 15.6057C17.7674 15.6057 18.0899 15.3041 18.0899 14.94V6.90929C18.0899 6.5452 17.7674 6.24353 17.3722 6.24353Z" fill="#3970F2"/>
<path d="M21.3354 17.6862H12.1709C12.0687 17.6739 11.965 17.6835 11.8667 17.7142C11.7685 17.7449 11.6778 17.7961 11.6008 17.8645C11.5238 17.9328 11.4621 18.0167 11.4199 18.1106C11.3777 18.2045 11.3558 18.3063 11.3558 18.4092C11.3558 18.5122 11.3777 18.6139 11.4199 18.7078C11.4621 18.8017 11.5238 18.8856 11.6008 18.954C11.6778 19.0223 11.7685 19.0735 11.8667 19.1042C11.965 19.1349 12.0687 19.1445 12.1709 19.1322H21.3354C21.4377 19.1445 21.5413 19.1349 21.6396 19.1042C21.7379 19.0735 21.8285 19.0223 21.9055 18.954C21.9826 18.8856 22.0442 18.8017 22.0864 18.7078C22.1287 18.6139 22.1505 18.5122 22.1505 18.4092C22.1505 18.3063 22.1287 18.2045 22.0864 18.1106C22.0442 18.0167 21.9826 17.9328 21.9055 17.8645C21.8285 17.7961 21.7379 17.7449 21.6396 17.7142C21.5413 17.6835 21.4377 17.6739 21.3354 17.6862Z" fill="#3970F2"/>
</svg>
