<svg width="33" height="33" viewBox="0 0 33 33" xmlns="http://www.w3.org/2000/svg">
<path d="M31.67 5.67001V19.06C31.67 19.36 31.47 19.62 31.19 19.7C31.0516 19.742 30.9032 19.7373 30.7677 19.6867C30.6322 19.6361 30.5171 19.5424 30.44 19.42C29.8032 18.3976 28.9437 17.5321 27.9258 16.8883C26.9078 16.2444 25.7575 15.8387 24.5609 15.7015C23.3642 15.5643 22.152 15.699 21.0147 16.0957C19.8773 16.4924 18.8443 17.1408 17.9926 17.9926C17.1408 18.8443 16.4924 19.8773 16.0957 21.0146C15.699 22.152 15.5643 23.3642 15.7015 24.5609C15.8387 25.7575 16.2444 26.9078 16.8883 27.9258C17.5321 28.9437 18.3976 29.8032 19.42 30.44C19.67 30.59 19.79 30.9 19.7 31.19C19.6591 31.3282 19.5748 31.4495 19.4595 31.536C19.3442 31.6225 19.2041 31.6695 19.06 31.67H5.67C4.43225 31.6674 3.24595 31.1745 2.37073 30.2993C1.49551 29.424 1.00264 28.2377 1 27V5.67001C1 4.43145 1.49202 3.24359 2.36781 2.3678C3.24361 1.492 4.43144 1 5.67 1H27C28.2377 1.00264 29.424 1.4955 30.2993 2.37073C31.1745 3.24595 31.6674 4.43226 31.67 5.67001ZM30.33 5.67001C30.33 4.78592 29.9795 3.93788 29.3553 3.3118C28.7311 2.68571 27.8841 2.33263 27 2.32999H5.67C4.78499 2.33262 3.93698 2.68539 3.31118 3.31119C2.68538 3.93699 2.33264 4.785 2.33 5.67001V27C2.33 28.84 3.83 30.33 5.67 30.33H17.14C16.1708 29.4887 15.3851 28.457 14.832 27.2989C14.2788 26.1408 13.97 24.8813 13.9247 23.5987C13.8795 22.3161 14.0987 21.0379 14.5689 19.8438C15.039 18.6496 15.75 17.565 16.6575 16.6575C17.565 15.75 18.6496 15.039 19.8438 14.5689C21.0379 14.0987 22.3161 13.8795 23.5987 13.9247C24.8813 13.97 26.1408 14.2788 27.2989 14.832C28.457 15.3852 29.4887 16.1708 30.33 17.14V5.67001Z"/>
<path d="M32.67 23.33C32.6673 25.8063 31.6824 28.1804 29.9314 29.9314C28.1804 31.6824 25.8063 32.6673 23.33 32.67C21.4799 32.672 19.6708 32.125 18.1316 31.0984C16.5925 30.0718 15.3925 28.6116 14.6836 26.9027C13.9747 25.1938 13.7887 23.313 14.1491 21.4983C14.5096 19.6837 15.4003 18.0168 16.7085 16.7085C18.0167 15.4003 19.6837 14.5096 21.4983 14.1491C23.313 13.7887 25.1938 13.9747 26.9027 14.6836C28.6116 15.3925 30.0717 16.5925 31.0984 18.1316C32.125 19.6708 32.6719 21.4799 32.67 23.33ZM31.33 23.33C31.33 21.2082 30.4871 19.1734 28.9868 17.6731C27.4865 16.1728 25.4517 15.33 23.33 15.33C21.2082 15.33 19.1734 16.1728 17.6731 17.6731C16.1728 19.1734 15.33 21.2082 15.33 23.33C15.33 25.4517 16.1728 27.4865 17.6731 28.9868C19.1734 30.4871 21.2082 31.33 23.33 31.33C25.4517 31.33 27.4865 30.4871 28.9868 28.9868C30.4871 27.4865 31.33 25.4517 31.33 23.33Z" />
<path d="M13.67 9H5.67C5.3 9 5 9.30001 5 9.67001C5 10.03 5.3 10.33 5.67 10.33H13.67C13.8323 10.31 13.9818 10.2314 14.0901 10.1089C14.1985 9.98646 14.2583 9.82855 14.2583 9.66501C14.2583 9.50146 14.1985 9.34356 14.0901 9.22107C13.9818 9.09858 13.8323 9.01994 13.67 9Z"/>
<path d="M9.67 5C9.3 5 9 5.30001 9 5.67001V13.67C9.01994 13.8323 9.09857 13.9818 9.22106 14.0901C9.34355 14.1985 9.50145 14.2583 9.665 14.2583C9.82855 14.2583 9.98644 14.1985 10.1089 14.0901C10.2314 13.9818 10.3101 13.8323 10.33 13.67V5.67001C10.33 5.30001 10.03 5 9.67 5Z"/>
<path d="M27.33 9H20.67C20.3 9 20 9.30001 20 9.67001C20 10.03 20.3 10.33 20.67 10.33H27.33C27.7 10.33 28 10.03 28 9.67001C28 9.30001 27.7 9 27.33 9Z"/>
<path d="M12.8 26.86L6.13999 20.2001C6.01534 20.0754 5.84627 20.0054 5.66999 20.0054C5.4937 20.0054 5.32464 20.0754 5.19999 20.2001C5.07534 20.3247 5.00531 20.4938 5.00531 20.6701C5.00531 20.8464 5.07534 21.0154 5.19999 21.1401L11.86 27.8C11.9207 27.8636 11.9936 27.9142 12.0744 27.9487C12.1552 27.9832 12.2421 28.0011 12.33 28.0011C12.4178 28.0011 12.5048 27.9832 12.5856 27.9487C12.6664 27.9142 12.7393 27.8636 12.8 27.8C12.8623 27.7386 12.9117 27.6655 12.9455 27.5848C12.9792 27.5041 12.9966 27.4175 12.9966 27.33C12.9966 27.2426 12.9792 27.156 12.9455 27.0753C12.9117 26.9946 12.8623 26.9215 12.8 26.86Z"/>
<path d="M12.8 20.2001C12.7386 20.1378 12.6654 20.0883 12.5847 20.0546C12.5041 20.0208 12.4175 20.0034 12.33 20.0034C12.2425 20.0034 12.1559 20.0208 12.0753 20.0546C11.9946 20.0883 11.9214 20.1378 11.86 20.2001L5.2 26.86C5.13772 26.9215 5.08826 26.9946 5.0545 27.0753C5.02074 27.156 5.00336 27.2426 5.00336 27.33C5.00336 27.4175 5.02074 27.5041 5.0545 27.5848C5.08826 27.6655 5.13772 27.7386 5.2 27.8C5.33 27.93 5.5 28.0001 5.67 28.0001C5.84 28.0001 6.01 27.93 6.14 27.8L12.8 21.1401C12.8623 21.0787 12.9117 21.0055 12.9455 20.9248C12.9793 20.8441 12.9966 20.7575 12.9966 20.6701C12.9966 20.5826 12.9793 20.496 12.9455 20.4153C12.9117 20.3346 12.8623 20.2615 12.8 20.2001Z"/>
<path d="M27.33 21H20.67C20.3 21 20 21.3 20 21.67C20 22.03 20.3 22.33 20.67 22.33H27.33C27.7 22.33 28 22.03 28 21.67C28 21.3 27.7 21 27.33 21Z"/>
<path d="M27.33 25H20.67C20.3 25 20 25.3 20 25.67C20 26.03 20.3 26.33 20.67 26.33H27.33C27.7 26.33 28 26.03 28 25.67C28 25.3 27.7 25 27.33 25Z"/>
</svg>
